<svg xmlns="http://www.w3.org/2000/svg" xmlns:xlink="http://www.w3.org/1999/xlink" viewBox="0 0 1000.37 221.04"><defs><style>.cls-1,.cls-10,.cls-11,.cls-12,.cls-13,.cls-14,.cls-15,.cls-16,.cls-17,.cls-18,.cls-19,.cls-2,.cls-20,.cls-21,.cls-22,.cls-23,.cls-24,.cls-25,.cls-26,.cls-27,.cls-28,.cls-29,.cls-3,.cls-30,.cls-31,.cls-32,.cls-33,.cls-34,.cls-35,.cls-36,.cls-37,.cls-38,.cls-39,.cls-4,.cls-40,.cls-41,.cls-42,.cls-43,.cls-44,.cls-45,.cls-46,.cls-47,.cls-48,.cls-49,.cls-5,.cls-50,.cls-51,.cls-52,.cls-53,.cls-54,.cls-55,.cls-56,.cls-57,.cls-58,.cls-59,.cls-6,.cls-60,.cls-61,.cls-62,.cls-63,.cls-7,.cls-8,.cls-9{fill:none;stroke-miterlimit:10;}.cls-1{stroke:url(#linear-gradient);}.cls-2{stroke:url(#linear-gradient-2);}.cls-3{stroke:url(#linear-gradient-3);}.cls-4{stroke:url(#linear-gradient-4);}.cls-5{stroke:url(#linear-gradient-5);}.cls-6{stroke:url(#linear-gradient-6);}.cls-7{stroke:url(#linear-gradient-7);}.cls-8{stroke:url(#linear-gradient-8);}.cls-9{stroke:url(#linear-gradient-9);}.cls-10{stroke:url(#linear-gradient-10);}.cls-11{stroke:url(#linear-gradient-11);}.cls-12{stroke:url(#linear-gradient-12);}.cls-13{stroke:url(#linear-gradient-13);}.cls-14{stroke:url(#linear-gradient-14);}.cls-15{stroke:url(#linear-gradient-15);}.cls-16{stroke:url(#linear-gradient-16);}.cls-17{stroke:url(#linear-gradient-17);}.cls-18{stroke:url(#linear-gradient-18);}.cls-19{stroke:url(#linear-gradient-19);}.cls-20{stroke:url(#linear-gradient-20);}.cls-21{stroke:url(#linear-gradient-21);}.cls-22{stroke:url(#linear-gradient-22);}.cls-23{stroke:url(#linear-gradient-23);}.cls-24{stroke:url(#linear-gradient-24);}.cls-25{stroke:url(#linear-gradient-25);}.cls-26{stroke:url(#linear-gradient-26);}.cls-27{stroke:url(#linear-gradient-27);}.cls-28{stroke:url(#linear-gradient-28);}.cls-29{stroke:url(#linear-gradient-29);}.cls-30{stroke:url(#linear-gradient-30);}.cls-31{stroke:url(#linear-gradient-31);}.cls-32{stroke:url(#linear-gradient-32);}.cls-33{stroke:url(#linear-gradient-33);}.cls-34{stroke:url(#linear-gradient-34);}.cls-35{stroke:url(#linear-gradient-35);}.cls-36{stroke:url(#linear-gradient-36);}.cls-37{stroke:url(#linear-gradient-37);}.cls-38{stroke:url(#linear-gradient-38);}.cls-39{stroke:url(#linear-gradient-39);}.cls-40{stroke:url(#linear-gradient-40);}.cls-41{stroke:url(#linear-gradient-41);}.cls-42{stroke:url(#linear-gradient-42);}.cls-43{stroke:url(#linear-gradient-43);}.cls-44{stroke:url(#linear-gradient-44);}.cls-45{stroke:url(#linear-gradient-45);}.cls-46{stroke:url(#linear-gradient-46);}.cls-47{stroke:url(#linear-gradient-47);}.cls-48{stroke:url(#linear-gradient-48);}.cls-49{stroke:url(#linear-gradient-49);}.cls-50{stroke:url(#linear-gradient-50);}.cls-51{stroke:url(#linear-gradient-51);}.cls-52{stroke:url(#linear-gradient-52);}.cls-53{stroke:url(#linear-gradient-53);}.cls-54{stroke:url(#linear-gradient-54);}.cls-55{stroke:url(#linear-gradient-55);}.cls-56{stroke:url(#linear-gradient-56);}.cls-57{stroke:url(#linear-gradient-57);}.cls-58{stroke:url(#linear-gradient-58);}.cls-59{stroke:url(#linear-gradient-59);}.cls-60{stroke:url(#linear-gradient-60);}.cls-61{stroke:url(#linear-gradient-61);}.cls-62{stroke:url(#linear-gradient-62);}.cls-63{stroke:url(#linear-gradient-63);}</style><linearGradient id="linear-gradient" x1="0.74" y1="128.61" x2="1000.37" y2="128.61" gradientUnits="userSpaceOnUse"><stop offset="0" stop-color="#fff"/><stop offset="0.4" stop-color="#f9f9f9"/><stop offset="0.93" stop-color="#e9e9e9"/><stop offset="1" stop-color="#e6e6e6"/></linearGradient><linearGradient id="linear-gradient-2" x1="0.87" y1="129.09" x2="999.85" y2="129.09" xlink:href="#linear-gradient"/><linearGradient id="linear-gradient-3" x1="1" y1="129.56" x2="999.34" y2="129.56" xlink:href="#linear-gradient"/><linearGradient id="linear-gradient-4" x1="1.13" y1="130.03" x2="998.83" y2="130.03" xlink:href="#linear-gradient"/><linearGradient id="linear-gradient-5" x1="1.26" y1="130.5" x2="998.31" y2="130.5" xlink:href="#linear-gradient"/><linearGradient id="linear-gradient-6" x1="1.39" y1="130.98" x2="997.8" y2="130.98" xlink:href="#linear-gradient"/><linearGradient id="linear-gradient-7" x1="1.52" y1="131.45" x2="997.28" y2="131.45" xlink:href="#linear-gradient"/><linearGradient id="linear-gradient-8" x1="1.64" y1="131.89" x2="996.77" y2="131.89" xlink:href="#linear-gradient"/><linearGradient id="linear-gradient-9" x1="1.74" y1="131.85" x2="996.25" y2="131.85" xlink:href="#linear-gradient"/><linearGradient id="linear-gradient-10" x1="1.83" y1="131.25" x2="995.74" y2="131.25" xlink:href="#linear-gradient"/><linearGradient id="linear-gradient-11" x1="1.93" y1="130.22" x2="995.22" y2="130.22" xlink:href="#linear-gradient"/><linearGradient id="linear-gradient-12" x1="2.02" y1="128.87" x2="994.71" y2="128.87" xlink:href="#linear-gradient"/><linearGradient id="linear-gradient-13" x1="2.11" y1="127.28" x2="994.19" y2="127.28" xlink:href="#linear-gradient"/><linearGradient id="linear-gradient-14" x1="2.21" y1="125.5" x2="993.68" y2="125.5" xlink:href="#linear-gradient"/><linearGradient id="linear-gradient-15" x1="2.3" y1="123.58" x2="993.16" y2="123.58" xlink:href="#linear-gradient"/><linearGradient id="linear-gradient-16" x1="2.4" y1="121.55" x2="992.64" y2="121.55" xlink:href="#linear-gradient"/><linearGradient id="linear-gradient-17" x1="2.5" y1="119.42" x2="992.13" y2="119.42" xlink:href="#linear-gradient"/><linearGradient id="linear-gradient-18" x1="2.59" y1="117.23" x2="991.61" y2="117.23" xlink:href="#linear-gradient"/><linearGradient id="linear-gradient-19" x1="2.69" y1="114.98" x2="991.09" y2="114.98" xlink:href="#linear-gradient"/><linearGradient id="linear-gradient-20" x1="2.79" y1="112.68" x2="990.57" y2="112.68" xlink:href="#linear-gradient"/><linearGradient id="linear-gradient-21" x1="2.88" y1="110.34" x2="990.05" y2="110.34" xlink:href="#linear-gradient"/><linearGradient id="linear-gradient-22" x1="2.98" y1="107.96" x2="989.53" y2="107.96" xlink:href="#linear-gradient"/><linearGradient id="linear-gradient-23" x1="3.08" y1="105.56" x2="989.01" y2="105.56" xlink:href="#linear-gradient"/><linearGradient id="linear-gradient-24" x1="3.18" y1="103.12" x2="988.49" y2="103.12" xlink:href="#linear-gradient"/><linearGradient id="linear-gradient-25" x1="3.28" y1="100.63" x2="987.97" y2="100.63" xlink:href="#linear-gradient"/><linearGradient id="linear-gradient-26" x1="3.38" y1="98.15" x2="987.45" y2="98.15" xlink:href="#linear-gradient"/><linearGradient id="linear-gradient-27" x1="3.48" y1="95.34" x2="986.93" y2="95.34" xlink:href="#linear-gradient"/><linearGradient id="linear-gradient-28" x1="3.58" y1="91.15" x2="986.41" y2="91.15" xlink:href="#linear-gradient"/><linearGradient id="linear-gradient-29" x1="3.69" y1="86.96" x2="985.89" y2="86.96" xlink:href="#linear-gradient"/><linearGradient id="linear-gradient-30" x1="3.79" y1="82.77" x2="985.36" y2="82.77" xlink:href="#linear-gradient"/><linearGradient id="linear-gradient-31" x1="3.89" y1="78.58" x2="984.84" y2="78.58" xlink:href="#linear-gradient"/><linearGradient id="linear-gradient-32" x1="4" y1="74.39" x2="984.32" y2="74.39" xlink:href="#linear-gradient"/><linearGradient id="linear-gradient-33" x1="3.87" y1="74.28" x2="983.95" y2="74.28" xlink:href="#linear-gradient"/><linearGradient id="linear-gradient-34" x1="3.75" y1="74.2" x2="983.59" y2="74.2" xlink:href="#linear-gradient"/><linearGradient id="linear-gradient-35" x1="3.63" y1="76.56" x2="983.22" y2="76.56" xlink:href="#linear-gradient"/><linearGradient id="linear-gradient-36" x1="3.51" y1="78.98" x2="982.85" y2="78.98" xlink:href="#linear-gradient"/><linearGradient id="linear-gradient-37" x1="3.39" y1="81.4" x2="982.48" y2="81.4" xlink:href="#linear-gradient"/><linearGradient id="linear-gradient-38" x1="3.27" y1="83.81" x2="982.11" y2="83.81" xlink:href="#linear-gradient"/><linearGradient id="linear-gradient-39" x1="3.15" y1="86.23" x2="981.73" y2="86.23" xlink:href="#linear-gradient"/><linearGradient id="linear-gradient-40" x1="3.03" y1="88.64" x2="981.36" y2="88.64" xlink:href="#linear-gradient"/><linearGradient id="linear-gradient-41" x1="2.92" y1="91.06" x2="980.98" y2="91.06" xlink:href="#linear-gradient"/><linearGradient id="linear-gradient-42" x1="2.8" y1="93.47" x2="980.6" y2="93.47" xlink:href="#linear-gradient"/><linearGradient id="linear-gradient-43" x1="2.68" y1="95.89" x2="980.22" y2="95.89" xlink:href="#linear-gradient"/><linearGradient id="linear-gradient-44" x1="2.57" y1="98.3" x2="979.84" y2="98.3" xlink:href="#linear-gradient"/><linearGradient id="linear-gradient-45" x1="2.45" y1="100.72" x2="979.45" y2="100.72" xlink:href="#linear-gradient"/><linearGradient id="linear-gradient-46" x1="2.34" y1="103.14" x2="979.07" y2="103.14" xlink:href="#linear-gradient"/><linearGradient id="linear-gradient-47" x1="2.23" y1="105.55" x2="978.69" y2="105.55" xlink:href="#linear-gradient"/><linearGradient id="linear-gradient-48" x1="2.11" y1="107.97" x2="978.3" y2="107.97" xlink:href="#linear-gradient"/><linearGradient id="linear-gradient-49" x1="2" y1="109.09" x2="977.92" y2="109.09" xlink:href="#linear-gradient"/><linearGradient id="linear-gradient-50" x1="1.88" y1="107.59" x2="977.54" y2="107.59" xlink:href="#linear-gradient"/><linearGradient id="linear-gradient-51" x1="1.77" y1="106.49" x2="977.16" y2="106.49" xlink:href="#linear-gradient"/><linearGradient id="linear-gradient-52" x1="1.65" y1="104.99" x2="976.78" y2="104.99" xlink:href="#linear-gradient"/><linearGradient id="linear-gradient-53" x1="1.51" y1="103.51" x2="976.4" y2="103.51" xlink:href="#linear-gradient"/><linearGradient id="linear-gradient-54" x1="1.36" y1="102.3" x2="976.02" y2="102.3" xlink:href="#linear-gradient"/><linearGradient id="linear-gradient-55" x1="1.2" y1="101.35" x2="975.64" y2="101.35" xlink:href="#linear-gradient"/><linearGradient id="linear-gradient-56" x1="1.05" y1="100.61" x2="975.27" y2="100.61" xlink:href="#linear-gradient"/><linearGradient id="linear-gradient-57" x1="0.9" y1="100.04" x2="974.93" y2="100.04" xlink:href="#linear-gradient"/><linearGradient id="linear-gradient-58" x1="0.75" y1="99.6" x2="974.59" y2="99.6" xlink:href="#linear-gradient"/><linearGradient id="linear-gradient-59" x1="0.6" y1="99.26" x2="974.25" y2="99.26" xlink:href="#linear-gradient"/><linearGradient id="linear-gradient-60" x1="0.45" y1="99.01" x2="973.91" y2="99.01" xlink:href="#linear-gradient"/><linearGradient id="linear-gradient-61" x1="0.3" y1="98.85" x2="973.57" y2="98.85" xlink:href="#linear-gradient"/><linearGradient id="linear-gradient-62" x1="0.15" y1="98.7" x2="973.22" y2="98.7" xlink:href="#linear-gradient"/><linearGradient id="linear-gradient-63" x1="0" y1="98.61" x2="972.88" y2="98.61" xlink:href="#linear-gradient"/></defs><title>Asset 1</title><g id="Layer_2" data-name="Layer 2"><g id="Layer_1-2" data-name="Layer 1"><path class="cls-1" d="M.85,36.68c172,39.19,332.41,127.89,504.88,164.26a883.06,883.06,0,0,0,115.76,16.45c52.81,4,105.8,3.31,158.73,2.64,74.37-.95,150.61-2.28,220-32"/><path class="cls-2" d="M1,40c57.66,11.27,114.15,28,170.66,47.38C232,108,292.07,132,352.6,153.3,403.1,171,454,186.87,506.06,198A886.79,886.79,0,0,0,622,214.85c18.19,1.43,36.4,2.31,54.63,2.8,34.79.95,69.64.52,104.43-.12,18.62-.34,37.35-.77,56-1.72,56-2.82,111.6-10.37,162.55-33.86"/><path class="cls-3" d="M1.08,43.23c57.2,9.3,113.38,23.79,170,42C231.67,104.62,292,128.64,352.68,150c50.59,17.8,101.63,33.76,153.72,45.06a890.54,890.54,0,0,0,116.13,17.26c18.22,1.49,36.47,2.42,54.74,3,34.86,1,69.81.61,104.65-.23,18.65-.45,37.39-1,56.07-2.22,55.88-3.47,111.24-12.25,161.13-36.93"/><path class="cls-4" d="M1.19,46.51c56.74,7.33,112.61,19.61,169.34,36.6,60.78,18.08,121.43,42.12,182.23,63.57,50.69,17.87,101.81,34,154,45.43a894.33,894.33,0,0,0,116.32,17.67c18.25,1.55,36.54,2.54,54.84,3.11,34.93,1.1,70,.7,104.87-.33,18.68-.56,37.44-1.31,56.12-2.72,55.79-4.12,110.88-14.13,159.71-40"/><path class="cls-5" d="M1.3,49.79A967.12,967.12,0,0,1,170,81c61,16.77,121.92,40.83,182.86,62.37,50.78,17.94,102,34.16,154.24,45.8a898.14,898.14,0,0,0,116.5,18.07c18.29,1.61,36.61,2.65,55,3.27,35,1.18,70.13.79,105.08-.44,18.71-.66,37.49-1.59,56.16-3.22,55.7-4.78,110.51-16,158.3-43.07"/><path class="cls-6" d="M1.42,53.07c55.83,3.38,111.06,11.25,168,25.82,61.16,15.46,122.41,39.54,183.49,61.17,50.87,18,102.17,34.36,154.49,46.17A902,902,0,0,0,624.1,204.7c18.32,1.67,36.67,2.77,55.06,3.42,35.07,1.25,70.3.88,105.3-.55,18.75-.77,37.53-1.86,56.2-3.73,55.6-5.43,110.15-17.88,156.88-46.14"/><path class="cls-7" d="M1.53,56.34c55.37,1.4,110.29,7.07,167.35,20.43,61.35,14.14,122.9,38.25,184.12,60,51,18.08,102.35,34.55,154.75,46.53a905.83,905.83,0,0,0,116.88,18.89c18.35,1.73,36.74,2.88,55.17,3.58,35.14,1.33,70.46,1,105.52-.66,18.78-.87,37.58-2.13,56.25-4.23,55.51-6.08,109.79-19.76,155.46-49.21"/><path class="cls-8" d="M1.65,59.62c54.91-.57,109.52,2.89,166.68,15,61.54,12.83,123.39,37,184.75,58.77,51.05,18.15,102.53,34.75,155,46.9a909.72,909.72,0,0,0,117.06,19.29c18.39,1.79,36.81,3,55.27,3.73,35.21,1.4,70.62,1.06,105.74-.77,18.81-1,37.63-2.4,56.29-4.73,55.42-6.73,109.43-21.64,154-52.28"/><path class="cls-9" d="M1.76,62.9c54.45-2.54,108.72-1.17,166,9.65,61.7,11.66,123.88,35.66,185.38,57.57,51.15,18.22,102.72,35,155.26,47.27a913.64,913.64,0,0,0,117.25,19.7c18.42,1.85,36.88,3.11,55.38,3.89,35.29,1.48,70.79,1.15,106-.87,18.84-1.08,37.68-2.67,56.33-5.23,55.32-7.39,109.07-23.52,152.62-55.34"/><path class="cls-10" d="M1.87,66.18c54-4.52,107.95-5.34,165.35,4.26,61.9,10.35,124.38,34.37,186,56.37,51.24,18.29,102.9,35.15,155.52,47.64a917.58,917.58,0,0,0,117.43,20.1q27.68,2.87,55.49,4a996.94,996.94,0,0,0,106.18-1c18.87-1.19,37.72-2.95,56.38-5.73,55.23-8,108.71-25.4,151.2-58.41"/><path class="cls-11" d="M2,69.46C55.52,63,109.16,59.94,166.68,68.33c62.09,9.05,124.87,33.08,186.63,55.17,51.33,18.36,103.08,35.35,155.78,48A921.55,921.55,0,0,0,626.71,192q27.73,3,55.6,4.2a933.65,933.65,0,0,0,106.4-1.09c18.9-1.3,37.77-3.22,56.42-6.23,55.14-8.69,108.34-27.28,149.79-61.48"/><path class="cls-12" d="M2.1,72.73c53.07-8.46,106.41-13.68,164-6.52C228.41,74,291.48,98,353.39,120.19c51.42,18.43,103.26,35.54,156,48.38a925.55,925.55,0,0,0,117.81,20.92q27.78,3,55.7,4.35a878.36,878.36,0,0,0,106.62-1.2c18.93-1.4,37.82-3.49,56.46-6.73,55-9.34,108-29.16,148.37-64.55"/><path class="cls-13" d="M2.21,76C54.83,65.58,107.85,58.15,165.58,64.11,228,70.55,291.43,94.6,353.47,116.88c51.51,18.5,103.44,35.74,156.29,48.74a929.57,929.57,0,0,0,118,21.32q27.83,3.14,55.81,4.51a829.66,829.66,0,0,0,106.83-1.31,556,556,0,0,0,56.51-7.23c54.93-10.11,107.62-31,146.95-67.62"/><path class="cls-14" d="M2.33,79.29C54.48,66.88,107.19,57.26,165,62c62.67,5.13,126.34,29.2,188.52,51.57,51.61,18.57,103.62,35.94,156.55,49.11a933.62,933.62,0,0,0,118.18,21.73q27.88,3.23,55.92,4.66a786.43,786.43,0,0,0,107.05-1.41,524.25,524.25,0,0,0,56.55-7.73c54.84-10.76,107.26-32.91,145.53-70.69"/><path class="cls-15" d="M2.44,82.57c51.7-14.38,104.1-26.21,162-22.69,62.86,3.82,126.83,27.91,189.15,50.37,51.7,18.63,103.8,36.14,156.8,49.48A937.7,937.7,0,0,0,628.8,181.87q27.92,3.32,56,4.82a747.81,747.81,0,0,0,107.27-1.52,496.09,496.09,0,0,0,56.59-8.23c54.74-11.41,106.9-34.79,144.11-73.76"/><path class="cls-16" d="M2.55,85.85C53.79,69.49,105.88,55.45,163.92,57.77,227,60.28,291.25,84.38,353.71,106.94c51.79,18.7,104,36.33,157.06,49.85a941.8,941.8,0,0,0,118.55,22.54q28,3.41,56.13,5a713.1,713.1,0,0,0,107.49-1.63,471,471,0,0,0,56.64-8.73c54.65-12.07,106.54-36.67,142.69-76.83"/><path class="cls-17" d="M2.67,89.12C53.44,70.79,105.23,54.55,163.37,55.66c63.25,1.2,127.82,25.32,190.41,48C405.67,122.4,458,140.16,511.1,153.85A945.93,945.93,0,0,0,629.84,176.8q28,3.5,56.24,5.13c35.85,2.08,72.1,1.86,107.71-1.74a448.46,448.46,0,0,0,56.68-9.24C905,158.23,956.64,132.4,991.74,91.05"/><path class="cls-18" d="M2.78,92.4C53.1,72.1,104.57,54,162.82,53.54c63.44-.47,128.31,24,191,46.77,52,18.84,104.35,36.73,157.57,50.59a950.09,950.09,0,0,0,118.93,23.35q28.07,3.59,56.35,5.28c35.92,2.15,72.26,2,107.93-1.85A428.16,428.16,0,0,0,851.36,168c54.46-13.37,105.81-40.43,139.86-83"/><path class="cls-19" d="M2.89,95.68c49.86-22.28,101-42.94,159.38-44.25C225.91,50,291.07,74.17,353.94,97c52.07,18.91,104.53,36.93,157.83,51a954.27,954.27,0,0,0,119.11,23.76q28.12,3.68,56.45,5.43c36,2.23,72.42,2,108.15-2A409.78,409.78,0,0,0,852.25,165c54.36-14,105.45-42.31,138.44-86"/><path class="cls-20" d="M3,99c49.4-24.25,100.25-47.12,158.72-49.64C225.55,46.58,291,70.76,354,93.7c52.16,19,104.71,37.12,158.09,51.32a958.48,958.48,0,0,0,119.3,24.17Q659.58,173,688,174.77c36.07,2.3,72.59,2.13,108.37-2.06A387.88,387.88,0,0,0,853.14,162c54.3-14.56,105.09-44.18,137-89.1"/><path class="cls-21" d="M3.12,102.24C52.06,76,102.6,50.93,161.17,47.21,225.2,43.14,291,67.36,354.1,90.38c52.25,19,104.89,37.32,158.34,51.69a962.71,962.71,0,0,0,119.48,24.57q28.22,3.86,56.67,5.74c36.14,2.38,72.75,2.22,108.58-2.17A373.24,373.24,0,0,0,854,159c54.2-15.21,104.73-46.06,135.6-92.17"/><path class="cls-22" d="M3.23,105.51C51.72,77.32,101.94,50,160.62,45.1c64.22-5.38,130.27,18.86,193.56,42,52.34,19.12,105.07,37.52,158.6,52.06a967,967,0,0,0,119.67,25q28.27,4,56.78,5.9c36.21,2.45,72.92,2.31,108.8-2.28A359.84,359.84,0,0,0,854.93,156C909,140.13,959.29,108,989.11,60.75"/><path class="cls-23" d="M3.35,108.79c48-30.17,97.94-59.69,156.73-65.81,64.41-6.71,130.76,17.57,194.19,40.78,52.43,19.19,105.26,37.72,158.86,52.43A971.26,971.26,0,0,0,633,161.57q28.32,4,56.88,6.05c36.28,2.53,73.08,2.4,109-2.39A347.55,347.55,0,0,0,855.82,153c54-16.52,104-49.82,132.77-98.31"/><path class="cls-24" d="M3.46,112.07C51,79.92,100.63,48.19,159.52,40.87c64.6-8,131.26,16.27,194.82,39.58,52.53,19.26,105.44,37.91,159.11,52.79A975.57,975.57,0,0,0,633.5,159q28.37,4.13,57,6.21c36.35,2.6,73.24,2.49,109.24-2.5a336.25,336.25,0,0,0,57-12.74c53.92-17.17,103.64-51.7,131.35-101.38"/><path class="cls-25" d="M3.57,115.35C50.68,81.23,100,47.17,159,38.76c64.77-9.48,131.75,15,195.45,38.38C407,96.46,460,115.25,513.79,130.3c39.69,11.12,79.76,20.19,120.23,26.2q28.42,4.22,57.1,6.36c36.42,2.68,73.41,2.58,109.46-2.6a325.83,325.83,0,0,0,57-13.24C911.43,129.2,960.88,93.44,987.53,42.57"/><path class="cls-26" d="M3.69,118.63c46.65-36.09,95.61-72.36,154.74-82,65-10.79,132.24,13.69,196.08,37.18,52.71,19.39,105.8,38.31,159.63,53.53C553.88,138.6,594,147.83,634.54,154q28.47,4.31,57.21,6.52c36.49,2.75,73.57,2.67,109.68-2.71A316.19,316.19,0,0,0,858.49,144C912.23,125.55,961.41,88.57,987,36.51"/><path class="cls-27" d="M3.8,121.9C50,83.84,98.64,45.36,157.87,34.54c65.15-12.1,132.73,12.4,196.7,36,52.8,19.46,106,38.51,159.88,53.9,39.81,11.37,80,20.74,120.6,27q28.52,4.4,57.31,6.67c36.56,2.83,73.73,2.76,109.9-2.82A307.26,307.26,0,0,0,859.38,141C913,121.91,961.94,83.7,986.48,30.45"/><path class="cls-28" d="M3.91,125.18C49.64,85.14,98,44.46,157.32,32.42,222.66,19,290.54,43.53,354.66,67.2c52.89,19.53,106.16,38.71,160.14,54.27,39.88,11.5,80.12,21,120.79,27.42q28.57,4.49,57.42,6.83c36.63,2.91,73.9,2.85,110.12-2.93A299,299,0,0,0,860.28,138c53.55-19.78,102.2-59.21,125.67-113.65"/><path class="cls-29" d="M4,128.46c45.27-42,93.29-84.9,152.74-98.15,65.53-14.72,133.71,9.81,198,33.58,53,19.6,106.34,38.9,160.4,54.64,39.94,11.63,80.24,21.3,121,27.82q28.62,4.58,57.53,7c36.71,3,74.06,2.94,110.33-3a291.27,291.27,0,0,0,57.2-15.25C914.62,114.62,963,74,985.42,18.33"/><path class="cls-30" d="M4.14,131.74C49,87.75,96.66,42.66,156.22,28.2c65.72-16,134.21,8.52,198.59,32.38,53.08,19.67,106.53,39.1,160.65,55,40,11.75,80.35,21.58,121.16,28.23,19.11,3.11,38.32,5.53,57.64,7.14,36.78,3.06,74.22,3,110.55-3.14a284.09,284.09,0,0,0,57.24-15.75C915.42,111,963.53,69.09,984.9,12.27"/><path class="cls-31" d="M4.25,135C48.61,89.05,96,41.75,155.67,26.09c65.91-17.35,134.7,7.23,199.22,31.18C408.06,77,461.6,96.57,515.8,112.64c40.06,11.88,80.47,21.86,121.35,28.64,19.14,3.17,38.39,5.65,57.74,7.29,36.85,3.13,74.39,3.11,110.77-3.25A277.39,277.39,0,0,0,863,129.07C916.22,107.34,964.06,64.22,984.37,6.21"/><path class="cls-32" d="M4.37,138.29C48.26,90.36,95.34,40.85,155.12,24,221.22,5.32,290.31,29.91,355,54,466,95.27,578.7,136,695.52,146.19c56.73,4.93,115.14,2.28,168.32-20.11S964.59,59.35,983.84.15"/><path class="cls-33" d="M4.23,139.06c44.68-45.58,92.68-93.18,152.7-110.4,65.4-18.64,133.48,4.1,197.41,26.6,109.85,38.62,221.56,77.61,337.25,87,56.73,4.45,115,1.35,168.4-19.62C914,101.4,962.23,60.94,983.49,4.23"/><path class="cls-34" d="M4.1,139.82C49.55,96.6,98.48,50.9,158.75,33.34c64.7-18.62,131.77,2.28,195,23.22C462.35,92.49,573.08,130,687.66,138.29c56.71,4.12,115,.45,168.48-19.13,54.8-20,103.73-56.63,127-110.85"/><path class="cls-35" d="M4,140.59C50.2,99.72,100,55.78,160.56,38c63.95-18.75,130.07.45,192.53,19.84C460.5,91.1,570.28,126.92,683.72,134.34c56.71,3.71,114.91-.45,168.56-18.64C907.92,96.84,957.5,64.12,982.77,12.38"/><path class="cls-36" d="M3.83,141.36c47-38.52,97.73-80.6,158.55-98.65,63.23-18.77,128.36-1.38,190.09,16.46,106.19,30.55,215,64.7,327.33,71.22,56.7,3.3,114.86-1.33,168.64-18.15,56.49-17.67,106.7-46.53,134-95.78"/><path class="cls-37" d="M3.69,142.12c47.8-36.17,99.43-76.38,160.5-94.73C226.7,28.6,290.84,44.18,351.83,60.47c105,27.86,212.85,60.33,324,66,56.7,2.88,114.83-2.19,168.72-17.66C901.93,92.32,952.77,67.3,982.06,20.54"/><path class="cls-38" d="M3.55,142.89C52.14,109.07,104.67,70.73,166,52.07c61.8-18.8,124.95-5,185.2,9.7C455,86.94,561.88,117.72,671.92,122.49c56.7,2.46,114.8-3,168.8-17.17C899,90.08,950.41,68.89,981.7,24.61"/><path class="cls-39" d="M3.42,143.65c49.37-31.46,102.81-67.94,164.39-86.9,61.09-18.81,123.24-6.87,182.76,6.32C453.11,85.55,559.09,114.63,668,118.54a641.32,641.32,0,0,0,168.89-16.68C896,87.86,948,70.48,981.34,28.69"/><path class="cls-40" d="M3.28,144.42c50.15-29.11,104.5-63.71,166.34-83,60.38-18.82,121.53-8.7,180.32,2.94,101.31,19.79,206.35,47.16,314.11,50.22,56.7,1.61,114.79-4.68,169-16.19,60-12.76,112.66-26.33,148-65.64"/><path class="cls-41" d="M3.15,145.18c50.93-26.76,106.2-59.48,168.29-79.07,59.67-18.82,119.83-10.53,177.88-.44,100.09,17.1,204.19,42.75,310.8,45,56.7,1.18,114.8-5.47,169-15.7,60.93-11.49,114.14-21.28,151.46-58.1"/><path class="cls-42" d="M3,146C54.72,121.55,110.9,90.7,173.25,70.8,232.21,52,291.37,58.44,348.69,67c98.87,14.41,202,38.34,307.5,39.72,56.7.74,114.81-6.24,169.13-15.21,61.85-10.21,115.63-16.23,155-50.57"/><path class="cls-43" d="M2.88,146.72c52.49-22.05,109.59-51,172.19-71.23,58.25-18.81,116.41-14.19,173-7.2,97.65,11.72,199.87,36,304.19,34.47,56.7-.82,114.84-7,169.21-14.72,62.77-8.91,117.12-11.18,158.45-43"/><path class="cls-44" d="M2.74,147.48C56,127.78,114,100.7,176.88,80.16c57.54-18.8,114.71-16,170.56-10.58,96.43,9,197.73,31.62,300.89,29.21C705,97.47,763.18,91,817.61,84.57c63.7-7.59,118.61-6.13,161.94-35.5"/><path class="cls-45" d="M2.61,148.25c54.06-17.35,113-42.54,176.08-63.4,56.83-18.79,113-17.84,168.11-14,95.21,6.35,195.59,27.23,297.58,24C701.07,93,759.28,86.37,813.76,81.11c64.63-6.25,120.1-1.08,165.44-28"/><path class="cls-46" d="M2.47,149c54.84-15,114.68-38.29,178-59.48C236.63,70.76,291.8,69.86,346.18,72.18c94,3.66,193.38,20.57,294.28,18.71,56.71-1,114.92-9.18,169.45-13.25,65.57-4.89,121.59,4,168.94-20.42"/><path class="cls-47" d="M2.34,149.78c55.62-12.64,116.38-34,180-55.57C237.74,75.46,291.9,72.82,345.55,73.48c92.77,1.15,191.22,16.11,291,13.46,56.72-1.5,115-9.87,169.53-12.76,66.51-3.52,123.07,9,172.43-12.89"/><path class="cls-48" d="M2.2,150.54c56.4-10.29,118.08-29.79,181.93-51.65C238.85,80.16,292,75.67,344.92,74.79,436.48,73.25,534,86.42,632.59,83c56.72-2,115-10.55,169.61-12.27,67.44-2.12,124.56,14.06,175.93-5.35"/><path class="cls-49" d="M2.07,151.31c57.18-7.93,119.78-25.54,183.88-47.73,54-18.7,106.18-25,158.35-27.49,90.34-4.22,186.9,7.15,284.36,3,56.72-2.44,115.08-14.49,169.69-11.78,68.3,3.39,126.05,19.11,179.42,2.18"/><path class="cls-50" d="M1.93,152.08c58-5.58,121.48-21.28,185.83-43.82,53.31-18.67,104.48-26.88,155.91-30.87C432.8,70.48,528.41,80,624.72,75.1c56.73-2.91,115.18-15,169.78-11.29C863.65,68.55,922,88,977.41,73.53"/><path class="cls-51" d="M1.8,152.84c58.75-3.23,123.19-17,187.78-39.9C242.18,94.3,292.34,84.23,343,78.69c87.92-9.61,182.58-1.85,277.75-7.54,56.73-3.4,115.08-12.49,169.86-10.8,70.25,2.17,129,29.21,186.41,17.25"/><path class="cls-52" d="M1.66,153.61c59.53-.87,124.89-12.75,189.72-36A756,756,0,0,1,342.41,80c86.7-12.3,180.42-6.36,274.44-12.8C673.58,63.31,732,54.08,786.79,56.89,858,60.53,917.31,91.15,976.7,81.68"/><path class="cls-53" d="M1.53,154.37c60.31,1.48,126.6-8.48,191.67-32.07,51.21-18.57,99.36-32.38,148.58-41,85.49-15,178.26-10.88,271.14-18,56.73-4.38,115.12-13.73,170-9.82,72.1,5.13,132,39.31,193.4,32.33"/><path class="cls-54" d="M1.39,155.14A479.18,479.18,0,0,0,195,127c50.51-18.53,97.64-34.3,146.14-44.39C425.39,64.74,517.25,67.18,609,59.3,665.72,54.42,724.12,45,779.09,50c73,6.64,133.49,44.36,196.9,39.86"/><path class="cls-55" d="M1.25,155.9c61.87,6.18,130,.08,195.57-24.24,49.82-18.48,95.93-36.13,143.7-47.77,83-20.55,173.93-20,264.53-28.55C661.78,50,720.2,40.44,775.23,46.51c73.92,8.16,135,49.41,200.39,47.4"/><path class="cls-56" d="M1.12,156.67c62.65,8.54,131.74,4.37,197.52-20.32,49.12-18.43,94.23-38,141.26-51.15C421.69,62,511.66,60.7,601.12,51.4c56.73-5.89,115.15-15.49,170.26-8.35C846.2,52.75,907.85,97.51,975.27,98"/><path class="cls-57" d="M1,157.44c63.44,10.89,133.45,8.66,199.47-16.4C248.88,122.65,293,101.24,339.27,86.5c80.58-25.93,169.59-29.06,257.92-39.05C653.91,41,712.34,31.39,767.53,39.59c75.72,11.25,138,59.51,207.38,62.47"/><path class="cls-58" d="M.85,158.2c64.22,13.24,135.17,13,201.42-12.49C250,127.38,293.08,104.1,338.64,87.8,418,59.19,506.06,54.17,593.25,43.5,650,36.56,708.4,26.88,763.68,36.13c76.6,12.82,139.45,64.56,210.88,70"/><path class="cls-59" d="M.71,159c65,15.6,136.89,17.26,203.36-8.57C251.12,132.12,293.18,107,338,89.1,416.15,57.8,503.25,50.9,589.32,39.55c56.71-7.48,115.13-17.18,170.5-6.88,77.48,14.41,140.93,69.61,214.38,77.54"/><path class="cls-60" d="M.58,159.73c65.78,17.95,138.61,21.56,205.31-4.65,46.36-18.22,87.4-45.28,131.49-64.67,76.92-34,163.06-42.8,248-54.81,56.7-8,115.11-17.72,170.59-6.39,78.35,16,142.42,74.66,217.87,85.08"/><path class="cls-61" d="M.44,160.5c66.56,20.3,140.39,26,207.26-.74,45.7-18.07,85.69-47.11,129.05-68.05C412.45,55,497.64,44.32,581.45,31.65c56.69-8.57,115.08-18.26,170.67-5.9,79.2,17.62,143.91,79.71,221.37,92.61"/><path class="cls-62" d="M.31,161.26c67.34,22.65,142.09,30.26,209.21,3.18,45-18,84-48.94,126.61-71.44C410.61,53.63,494.8,40.88,577.52,27.7c56.66-9.22,115-18.8,170.75-5.41,80,19.24,145.4,84.76,224.86,100.15"/><path class="cls-63" d="M.17,162c68.12,25,143.8,34.52,211.16,7.1,44.29-18,82.28-50.76,124.17-74.82C408.76,52.25,492,37.71,573.58,23.75c56.66-9.69,115-19.33,170.83-4.92C825.3,39.71,891.3,108.64,972.77,126.52"/></g></g></svg>